<!-- Save as: public/github-icon.svg -->
<svg width="18" height="18" viewBox="0 0 24 24" fill="currentColor" xmlns="http://www.w3.org/2000/svg">
  <path d="M12 .5C5.37.5 0 5.87 0 12.5c0 5.3 3.44 9.8 8.21 11.38.6.11.82-.26.82-.58 0-.29-.01-1.05-.02-2.05-3.34.73-4.04-1.61-4.04-1.61-.55-1.39-1.35-1.76-1.35-1.76-1.1-.76.08-.75.08-.75 1.21.08 1.85 1.24 1.85 1.24 1.08 1.84 2.83 1.31 3.52 1 .11-.78.42-1.31.76-1.61-2.66-.3-5.46-1.33-5.46-5.92 0-1.31.47-2.38 1.24-3.22-.13-.3-.54-1.52.12-3.17 0 0 1.01-.32 3.3 1.23a11.5 11.5 0 0 1 3-.41c1.02 0 2.05.14 3 .41 2.29-1.55 3.3-1.23 3.3-1.23.66 1.65.25 2.87.12 3.17.77.84 1.24 1.91 1.24 3.22 0 4.6-2.8 5.61-5.48 5.91.43.37.81 1.11.81 2.23 0 1.61-.01 2.91-.01 3.3 0 .32.21.7.83.58A12.01 12.01 0 0 0 24 12.5C24 5.87 18.63.5 12 .5z"/>
</svg>
