<svg width="18" height="18" viewBox="0 0 48 48" xmlns="http://www.w3.org/2000/svg">
  <path fill="#EA4335" d="M24 9.5c3.5 0 6.6 1.2 9.1 3.2l6.8-6.8C35.4 2.1 30.1 0 24 0 14.6 0 6.5 5.8 2.6 14.3l8 6.2C12.3 14.2 17.6 9.5 24 9.5z"/>
  <path fill="#4285F4" d="M46.5 24.5c0-1.7-.2-3.3-.6-4.8H24v9.1h12.8c-.6 3.2-2.6 5.9-5.5 7.6l8.6 6.6c5-4.6 6.6-11.3 6.6-18.5z"/>
  <path fill="#FBBC05" d="M10.6 28.7c-.6-1.9-1-4-.1-5.9l-8-6.2C.8 20 0 22.9 0 26c0 3.1.8 6 2.5 8.6l8.1-6z"/>
  <path fill="#34A853" d="M24 48c6.5 0 11.9-2.1 15.8-5.7l-8.6-6.6c-2.3 1.6-5.2 2.5-8.3 2.5-6.4 0-11.8-4.3-13.7-10.2l-8.1 6C6.5 42.2 14.6 48 24 48z"/>
  <path fill="none" d="M0 0h48v48H0z"/>
</svg>
